Coordinates

Units are S.I. units (second, meters, Newtons, ...)
If the header above contains a line with 'inDegrees', this indicates whether rotational values are in degrees (yes) or radians (no).

inDegrees=no
nColumns=21
nRows=22
DataType=double
version=3
OpenSimVersion=4.6-2026-03-31-d6972f9e6
endheader
time	/jointset/ground_pelvis/pelvis_tilt/value	/jointset/ground_pelvis/pelvis_list/value	/jointset/ground_pelvis/pelvis_rotation/value	/jointset/ground_pelvis/pelvis_tx/value	/jointset/ground_pelvis/pelvis_ty/value	/jointset/ground_pelvis/pelvis_tz/value	/jointset/hip_r/hip_flexion_r/value	/jointset/hip_r/hip_adduction_r/value	/jointset/hip_r/hip_rotation_r/value	/jointset/walker_knee_r/knee_angle_r/value	/jointset/patellofemoral_r/knee_angle_r_beta/value	/jointset/ankle_r/ankle_angle_r/value	/jointset/subtalar_r/subtalar_angle_r/value	/jointset/hip_l/hip_flexion_l/value	/jointset/hip_l/hip_adduction_l/value	/jointset/hip_l/hip_rotation_l/value	/jointset/walker_knee_l/knee_angle_l/value	/jointset/patellofemoral_l/knee_angle_l_beta/value	/jointset/ankle_l/ankle_angle_l/value	/jointset/subtalar_l/subtalar_angle_l/value
151.996	0.002154997703586476	-0.1141925532783802	1.498136843932857	0.7967366451050961	0.9940948455082995	-0.9692592031882271	0.6756008975190873	-0.01737023126881213	0.1109084822497584	1.478969337075117	1.478969336558489	-0.2146079933148481	-0.4285302710840521	-0.09906483405348226	0.01797813810075444	-0.170567456909203	0.3674615532644205	0.3674615532473891	0.01140510346846752	-0.09765283007845159
152	0.007581155442922045	-0.1178396014193041	1.495024567367794	0.7965813778710854	0.9969732356134529	-0.9703626928614553	0.681970338624359	-0.00951753185357232	0.1060674328535847	1.443437801238644	1.443437800849875	-0.216745024057742	-0.427076840416281	-0.1165359962742254	0.01384773691892894	-0.1729324902459767	0.3452491587780023	0.345249158753563	-0.02332569894383317	-0.09318806070584491
152.004	0.01298606813451151	-0.1218286717863228	1.492182583275574	0.7964100971128135	0.9998115149615358	-0.9715077755683779	0.6875005750122675	-0.00193187211773464	0.1007825572059734	1.406145540472572	1.406145540226185	-0.219290549507945	-0.4260902188386799	-0.1329542123181239	0.00976187289763243	-0.1749915605547808	0.323865235426384	0.3238652353740437	-0.05840087151188497	-0.08944542903778055
152.008	0.01833834037610578	-0.1261128707395908	1.489614082678169	0.7962274586906053	1.002600616280705	-0.9726896496908098	0.6921475795112014	0.005370574525669265	0.09509171856927359	1.367088415785044	1.367088415686575	-0.2221326344460417	-0.4254411059239788	-0.1483169604838147	0.005733677156764088	-0.1767128387395491	0.3034759776577171	0.3034759775580831	-0.09348684986416253	-0.08646757414680739
152.012	0.02360294446121499	-0.1306382106650701	1.487314645520432	0.7960385425950719	1.005331976440986	-0.9739034017668002	0.6958638808058133	0.01237651448840952	0.089037989386502	1.326265747153114	1.326265747198438	-0.225153129925185	-0.4249692639007847	-0.1626331528844152	0.001780815063978272	-0.1780732936169952	0.2842493302566806	0.2842493300927315	-0.1282445354213862	-0.08428763897159439
152.016	0.02874092372701174	-0.1353447089680525	1.485272802270377	0.7958486869258639	1.007997352153112	-0.9751440298910302	0.69860057359581	0.01907433659820472	0.08266925174391339	1.283684171875103	1.283684172050831	-0.2282323535386847	-0.4244862688704953	-0.1759217165894617	-0.002073678521424717	-0.1790586416084128	0.2663536358807864	0.2663536356388695	-0.1623363830994244	-0.0829274285093205
152.02	0.03370920218555151	-0.1401675460967198	1.483470739982166	0.7956633188867561	1.010588663775198	-0.9764064691071974	0.7003095800209361	0.02545284368080972	0.07603768707855378	1.239361862288064	1.23936186257303	-0.2312541539029279	-0.4237796686203274	-0.188210213460563	-0.005800768930153766	-0.1796630724411599	0.2499557221910595	0.2499557218617194	-0.195433852157888	-0.08239589931969296
152.024	0.03846055768448399	-0.1450382733036039	1.48188512247864	0.795487788184333	1.013097873213549	-0.9776856160818721	0.7009461136988745	0.03149999695660887	0.06919914103811622	1.193332995723016	1.193332996090657	-0.234111115634574	-0.4226185723826275	-0.1995335045228759	-0.009365067478724513	-0.1798888041960555	0.2352185037375427	0.2352185033163661	-0.2272249831965977	-0.08268813014486893
152.028	0.04294382470559341	-0.1498860704011765	1.480487995773422	0.7953272087162904	1.015516900159311	-0.9789763503638265	0.700471286894516	0.03720177991321737	0.06221235919895679	1.145652332445368	1.145652332866563	-0.2367096226306387	-0.4207606114309624	-0.2099324401165222	-0.01272483350162181	-0.1797455290591944	0.222298229730085	0.2222982292185742	-0.2574218150415365	-0.08378486635930824
152.032	0.04710440438104462	-0.1546390520161212	1.479247749386432	0.7951863148752869	1.017837580170958	-0.9802735498018279	0.6988547752527575	0.04254131258909621	0.05513810006981994	1.096399716196733	1.096399716642505	-0.2389744674239433	-0.4179601083012844	-0.2194525476968592	-0.01583242291404237	-0.1792498255426563	0.2113415553981621	0.2113415548043457	-0.2857673173944746	-0.08565266716707752
152.036	0.05088515004628023	-0.1592256171216761	1.478130105882862	0.7950693380798913	1.02005166692226	-0.9815720981884173	0.6960774342944048	0.04749834285189526	0.0480381412518875	1.045684278079767	1.045684278523307	-0.2408526963610366	-0.4139772016022601	-0.2281426891531085	-0.01863525784258516	-0.1784246119154463	0.2024826324914099	0.2024826318297928	-0.3120415183974604	-0.08824465472034901
152.04	0.05422765080853114	-0.1635758361511654	1.477099118063824	0.7949799071306636	1.022150878377358	-0.9828668842733748	0.6921337585994536	0.05204919247751585	0.04097420916705036	0.9936481063697277	0.9936481067874491	-0.2423164241934002	-0.4085876089589149	-0.2360536660684122	-0.02107733273162151	-0.1772986702716553	0.1958403939381122	0.1958403932288016	-0.3360665616752959	-0.0915018729607318
152.044	0.05707389101915729	-0.1676228631439566	1.476118163139084	0.7949209738842393	1.024126984436954	-0.984152793323088	0.6870340662527344	0.0561671840581231	0.03400687384248068	0.9404691358553986	0.9404691362271993	-0.243364404642142	-0.40159264381792	-0.2432367682727161	-0.02310121611293483	-0.1759062250449588	0.1915161765937221	0.1915161758610226	-0.3577104947430033	-0.09535525452089776
152.048	0.05936824682124527	-0.1713043386433355	1.475150928984562	0.7948947642080437	1.025971932896781	-0.9854246949655703	0.6808062649969751	0.05982354846143985	0.02719444690691284	0.8863630093658815	0.8863630096750617	-0.2440221963506221	-0.3928290336019727	-0.2497422947184169	-0.02465048421050255	-0.1742865494800994	0.1895917975997418	0.1895917968707314	-0.3768896503383906	-0.09972814397080246
152.052	0.06105976091470437	-0.1745637231938761	1.474162383773046	0.7949027529302966	1.027678009516962	-0.9866774328401142	0.673497039011997	0.06298878546378871	0.02059191859150495	0.8315836853735535	0.831583685606765	-0.2443408480889856	-0.3821780619312793	-0.2556181189559925	-0.02567249471158663	-0.1724835616564459	0.1901281529346506	0.1901281522380189	-0.3935695579379452	-0.1045392772860918
152.056	0.06210459342985499	-0.1773514995026133	1.473119708272704	0.7949456607821193	1.029238023922677	-0.9879058217671804	0.6651723240046041	0.06563440777170511	0.0142499858184619	0.7764226174744807	0.776422617621801	-0.2443941289074767	-0.3695735552985402	-0.2609083853546574	-0.02612135886783081	-0.1705453545682338	0.1931643554339758	0.193164354799028	-0.4077643925476626	-0.109706086860074
152.06	0.06246850939482762	-0.1796262042409902	1.471993160242404	0.7950234714158319	1.030645507287749	-0.9891046574510441	0.655917001379805	0.06773496317553424	0.00821424244939979	0.7212064027925863	0.721206402847681	-0.244274400967343	-0.3550082078195566	-0.265652393317047	-0.02596093583437405	-0.1685236208503678	0.198717412755943	0.1987174122115277	-0.4195349944128949	-0.1151481685454424
152.064	0.06212925828819339	-0.1813552528235884	1.470756844098402	0.7951354666571071	1.031894905778594	-0.9902687429845599	0.645833775479474	0.06927021468103513	0.002524596177123044	0.6662928663168258	0.6662928662771987	-0.2440872892375151	-0.3385377413177271	-0.269883714277956	-0.02516767695312043	-0.1664729577397454	0.2067824451067092	0.2067824446799681	-0.4289855186682103	-0.1207907193957073
152.068	0.06107871465528827	-0.1825154888428126	1.469389372235896	0.7952802775211153	1.03298175662104	-0.9913929355321521	0.6350411901402864	0.07022735073481019	-0.002785055456984469	0.6120656163182957	0.612065616185596	-0.2439453821950724	-0.3202825019150951	-0.2736296215426497	-0.02373316532708329	-0.1644500308344372	0.2173334153879193	0.2173334151029711	-0.4362588408411048	-0.1265677496154178
152.072	0.05932465213282431	-0.1830933769590935	1.467874408375862	0.7954559478575203	1.033902835538336	-0.9924722151807084	0.623670766147049	0.07060308225066331	-0.007686890480417816	0.5589271940865561	0.5589271938667699	-0.2439612803091001	-0.3004262571242814	-0.2769109321120414	-0.02166620038713099	-0.1625125672644051	0.2303243049471989	0.2303243048239274	-0.4415309121279352	-0.1324248814653544
152.076	0.05689201494794896	-0.1830847958034018	1.466201071710793	0.7956600077756186	1.034656262249588	-0.993501775955387	0.6118633355787471	0.07040546697330244	-0.01215898968581237	0.5072910512414801	0.5072910509448176	-0.244240353142608	-0.2792121117599384	-0.2797423139623729	-0.01899427366684881	-0.1607181763414399	0.2456906525149026	0.245690652567881	-0.4450042880529831	-0.138321563945822
152.08	0.05382355323754145	-0.1824944437073536	1.464364168496771	0.79588955482614	1.03524154863852	-0.994477136507131	0.5997647589504951	0.06965530100716315	-0.01618496178658737	0.4575726907890285	0.4575726904294684	-0.2448735727083268	-0.2569356122250119	-0.2821330396805986	-0.01576429286268706	-0.1591230363901142	0.2633513778405838	0.2633513780780027	-0.4469010639828942	-0.1442325623513957
